<?xml version="1.0" encoding="UTF-8"?>
<svg version="1.1" xmlns="http://www.w3.org/2000/svg" width="480" height="480">
<path d="M0 0 C1.05076721 0.00337372 2.10153442 0.00674744 3.18414307 0.01022339 C19.22139051 0.08466866 34.63920901 0.76130967 50.3125 4.4375 C51.35841309 4.67355957 52.40432617 4.90961914 53.48193359 5.15283203 C82.67299559 11.8932425 112.04015732 23.61147055 136.3125 41.4375 C136.92641602 41.88061523 137.54033203 42.32373047 138.17285156 42.78027344 C146.14911046 48.5458261 153.76628633 54.48033642 160.9453125 61.22265625 C162.97597153 63.12262931 165.05091118 64.90996449 167.1875 66.6875 C200.6219897 95.96821399 223.41279597 139.22400319 234.25 181.75 C234.52046143 182.80856201 234.79092285 183.86712402 235.06958008 184.95776367 C239.45148764 203.26455403 240.86759391 221.34836492 240.75 240.125 C240.74662628 241.17576721 240.74325256 242.22653442 240.73977661 243.30914307 C240.66533134 259.34639051 239.98869033 274.76420901 236.3125 290.4375 C236.07644043 291.48341309 235.84038086 292.52932617 235.59716797 293.60693359 C221.24993228 355.74128699 182.77343779 409.99509232 129.09106445 444.34130859 C107.24495498 457.92338635 83.93163372 468.0214934 59 474.375 C57.41215698 474.78069214 57.41215698 474.78069214 55.79223633 475.19458008 C37.48544597 479.57648764 19.40163508 480.99259391 0.625 480.875 C-0.42576721 480.87162628 -1.47653442 480.86825256 -2.55914307 480.86477661 C-18.59639051 480.79033134 -34.01420901 480.11369033 -49.6875 476.4375 C-50.73341309 476.20144043 -51.77932617 475.96538086 -52.85693359 475.72216797 C-82.04799559 468.9817575 -111.41515732 457.26352945 -135.6875 439.4375 C-136.30141602 438.99438477 -136.91533203 438.55126953 -137.54785156 438.09472656 C-145.52411046 432.3291739 -153.14128633 426.39466358 -160.3203125 419.65234375 C-162.35097153 417.75237069 -164.42591118 415.96503551 -166.5625 414.1875 C-199.9969897 384.90678601 -222.78779597 341.65099681 -233.625 299.125 C-233.89546143 298.06643799 -234.16592285 297.00787598 -234.44458008 295.91723633 C-238.82648764 277.61044597 -240.24259391 259.52663508 -240.125 240.75 C-240.12162628 239.69923279 -240.11825256 238.64846558 -240.11477661 237.56585693 C-240.04033134 221.52860949 -239.36369033 206.11079099 -235.6875 190.4375 C-235.45144043 189.39158691 -235.21538086 188.34567383 -234.97216797 187.26806641 C-220.62493228 125.13371301 -182.14843779 70.87990768 -128.46606445 36.53369141 C-106.61995498 22.95161365 -83.30663372 12.8535066 -58.375 6.5 C-57.31643799 6.22953857 -56.25787598 5.95907715 -55.16723633 5.68041992 C-36.86044597 1.29851236 -18.77663508 -0.11759391 0 0 Z " fill="#FEDD3C" transform="translate(239.6875,-0.4375)"/>
<path d="M0 0 C2.5182724 -0.01865387 2.5182724 -0.01865387 5.0365448 -0.03730774 C6.10619382 -0.0452621 7.17584284 -0.05321646 8.27790546 -0.06141186 C10.61370316 -0.0786511 12.94950274 -0.09563768 15.28530407 -0.11237812 C22.50572479 -0.16385436 22.50572479 -0.16385436 29.72598267 -0.23373413 C33.00103267 -0.26782224 36.27558342 -0.28318269 39.55078125 -0.29296875 C40.61727905 -0.30831665 41.68377686 -0.32366455 42.78259277 -0.33947754 C49.96321473 -0.34194652 56.1780291 0.76150858 63 3 C63 3.66 63 4.32 63 5 C63.680625 5.165 64.36125 5.33 65.0625 5.5 C70.44555961 8.2487964 74.47004156 13.17957144 76.9375 18.6875 C79.98833628 28.43110836 78.32212281 38.92887805 74 48 C71.16532538 52.27099413 68.36664333 54.15472105 63.75 56.3125 C62.67234375 56.82425781 61.5946875 57.33601563 60.484375 57.86328125 C59.66453125 58.23839844 58.8446875 58.61351562 58 59 C59.39328702 63.80317368 61.50605239 67.83926688 64.125 72.0625 C64.5173584 72.70936768 64.9097168 73.35623535 65.31396484 74.02270508 C67.30012949 77.28716944 69.327061 80.52057616 71.40625 83.7265625 C71.77991699 84.31042725 72.15358398 84.89429199 72.53857422 85.49584961 C73.56989041 87.10169004 74.61656235 88.69763806 75.6640625 90.29296875 C77 93 77 93 76.9609375 94.98828125 C75.58711571 97.86437158 73.80472567 100.37350782 72 103 C70.39807685 105.62279081 68.85733238 108.28076636 67.3125 110.9375 C64.74917609 115.33190611 62.18398358 119.72213833 59.5234375 124.05859375 C51.72896456 136.77039596 45.60460106 148.29888624 45.5625 163.5 C45.55863281 164.46309082 45.55476563 165.42618164 45.55078125 166.41845703 C45.6884733 175.03425051 47.56223635 182.11769906 51 190 C54.53865069 182.25709528 57.65973125 174.36677079 60.75 166.4375 C61.26152943 165.12948324 61.77324684 163.82153997 62.28515625 162.51367188 C63.5252796 159.34316783 64.76289441 156.17168277 66 153 C73.92 153 81.84 153 90 153 C86.62518736 163.12443793 86.62518736 163.12443793 85.22583008 166.55981445 C84.91152542 167.33545242 84.59722076 168.11109039 84.27339172 168.91023254 C83.94211777 169.71973862 83.61084381 170.52924469 83.26953125 171.36328125 C82.91541672 172.23534714 82.56130219 173.10741302 82.19645691 174.00590515 C81.07110219 176.77584879 79.94196563 179.54423042 78.8125 182.3125 C77.70680561 185.02921713 76.6019227 187.74626291 75.49728394 190.46340942 C74.76016229 192.27646144 74.02263162 194.08934721 73.28469849 195.90206909 C70.79332605 202.0276006 68.33345111 208.16511666 65.88671875 214.30859375 C62.35600275 223.16451776 58.70562269 231.96606309 55 240.75 C54.40999605 242.15227636 53.8201522 243.55462009 53.23046875 244.95703125 C51.82213608 248.30545731 50.4117136 251.6529977 49 255 C46.58032646 255.06254862 44.16227892 255.10835419 41.7421875 255.14453125 C41.05922607 255.16390747 40.37626465 255.18328369 39.67260742 255.20324707 C35.82973062 255.24636 33.13894243 255.18613156 30.125 252.6875 C28 250 28 250 27 247 C26.34 247.33 25.68 247.66 25 248 C2.28199092 229.02378065 -13.73117433 205.81842957 -18 176 C-18.27987835 172.24452958 -18.33462016 168.51491456 -18.3125 164.75 C-18.30758545 163.74710938 -18.3026709 162.74421875 -18.29760742 161.7109375 C-17.98796958 141.94492824 -11.76284003 118.65627892 1 103 C0.505 102.505 0.505 102.505 0 102 C-0.09536242 98.83387337 -0.12550636 95.68959372 -0.11352539 92.52319336 C-0.11367142 91.52818314 -0.11381744 90.53317291 -0.1139679 89.50801086 C-0.11326831 86.20193338 -0.10547379 82.89591146 -0.09765625 79.58984375 C-0.09579223 77.30440807 -0.09436825 75.01897199 -0.09336853 72.73353577 C-0.08954207 66.70501613 -0.0797107 60.67652041 -0.06866455 54.64801025 C-0.05845317 48.50167159 -0.0538715 42.35532907 -0.04882812 36.20898438 C-0.03808854 24.13931238 -0.0210106 12.06965818 0 0 Z " fill="#E4C636" transform="translate(116,113)"/>
<path d="M0 0 C30.03 0 60.06 0 91 0 C91.495 6.93 91.495 6.93 92 14 C92.81275462 16.18563151 92.81275462 16.18563151 95.00390625 16.77734375 C99.30631041 18.53308365 103.03687195 21.05509219 106.9375 23.5625 C107.77128174 24.09391602 108.60506348 24.62533203 109.46411133 25.17285156 C111.97898555 26.77740436 114.48995663 28.38790311 117 30 C118.45309935 30.93102961 119.90622259 31.86202195 121.359375 32.79296875 C124.57653876 34.85639651 127.78959768 36.92606963 131 39 C127.06687581 46.6764924 122.57898674 53.92085237 117.94604492 61.18725586 C113.90532763 67.53607705 109.96325049 73.9393308 106.0625 80.375 C100.81304704 89.03378609 95.51623239 97.66127892 90.17407227 106.26318359 C89.41694946 107.48255615 89.41694946 107.48255615 88.64453125 108.7265625 C88.17869629 109.47454102 87.71286133 110.22251953 87.23291016 110.99316406 C86.21351709 112.65245337 85.23236412 114.33516892 84.26171875 116.0234375 C83 118 83 118 81 119 C80.3290108 120.66493114 79.66359405 122.33210757 79 124 C77.53724648 126.65222187 75.95670405 129.22987386 74.375 131.8125 C73.95476562 132.50537109 73.53453125 133.19824219 73.1015625 133.91210938 C72.0710533 135.61010748 71.03598319 137.30533614 70 139 C69.43410156 138.71253906 68.86820312 138.42507813 68.28515625 138.12890625 C66.02316283 137.01144283 63.74242539 135.9632113 61.4375 134.9375 C60.67308594 134.59589844 59.90867187 134.25429688 59.12109375 133.90234375 C51.44245108 130.63573886 42.21030543 130.76496177 34.4375 133.75 C26.68646548 137.41688419 22.73546681 142.34284076 19 150 C15.74896454 159.49963583 15.26528158 170.47963938 19.59765625 179.71484375 C23.32848354 185.79432554 27.75532908 190.53556518 34 194 C32.53207673 198.61837847 29.89132083 201.84356403 26.6875 205.375 C25.9769043 206.21224609 25.9769043 206.21224609 25.25195312 207.06640625 C23.82421875 208.6484375 23.82421875 208.6484375 21 211 C15.79354344 211.13554328 12.31535757 207.55269328 8.5 204.37890625 C4.6131563 200.68033154 1.75437971 196.58328784 -1 192 C-1.41121094 191.319375 -1.82242187 190.63875 -2.24609375 189.9375 C-8.91179956 177.82691363 -8.73938946 160.80883549 -6.3828125 147.51953125 C-5.47635801 144.80417863 -4.40705021 142.4927129 -3 140 C-2.38253906 138.89140625 -1.76507813 137.7828125 -1.12890625 136.640625 C1.4828127 132.14335421 4.01289744 127.96610038 7.75390625 124.3046875 C10.34897228 122.17828327 10.34897228 122.17828327 10 119 C11.07885742 116.88134766 11.07885742 116.88134766 12.60546875 114.4140625 C13.17048096 113.49359131 13.73549316 112.57312012 14.31762695 111.62475586 C14.93468506 110.63483643 15.55174316 109.64491699 16.1875 108.625 C16.81809326 107.60220947 17.44868652 106.57941895 18.09838867 105.52563477 C19.41259508 103.39597418 20.72978052 101.26814932 22.04980469 99.14208984 C23.87628859 96.1993197 25.69380636 93.25125448 27.5078125 90.30078125 C33.56735225 80.46203224 39.74953632 70.7229435 46 61 C30.82 60.67 15.64 60.34 0 60 C0 53.4 0 46.8 0 40 C2.66521729 39.96241577 2.66521729 39.96241577 5.38427734 39.92407227 C11.24768456 39.84025617 17.11101558 39.7519868 22.97430992 39.66066074 C26.53004209 39.60544085 30.08578251 39.55202237 33.64160156 39.50268555 C37.72730602 39.44591832 41.81285525 39.38137946 45.8984375 39.31640625 C47.17866791 39.29969376 48.45889832 39.28298126 49.77792358 39.26576233 C50.95899689 39.24581711 52.14007019 39.22587189 53.35693359 39.20532227 C54.40062103 39.18977798 55.44430847 39.1742337 56.5196228 39.15821838 C59.00141782 39.16152796 59.00141782 39.16152796 61 38 C61.6803548 36.338874 62.34421158 34.67097689 63 33 C64.14793579 31.05937876 65.33730171 29.14279067 66.5625 27.25 C67.18253906 26.28578125 67.80257812 25.3215625 68.44140625 24.328125 C70 22 70 22 71 21 C47.57 20.67 24.14 20.34 0 20 C0 13.4 0 6.8 0 0 Z " fill="#E5C737" transform="translate(273,153)"/>
<path d="M0 0 C0.33 0 0.66 0 1 0 C2.15582939 4.70928836 2.25019861 9.36754808 2.4375 14.1875 C3.1662374 28.86476998 5.98689969 42.2430183 17 53 C20.25768976 55.45332192 23.59097245 57.76261881 27 60 C26.75406118 63.55034757 26.16918011 64.82970869 23.62109375 67.39453125 C10.8581932 77.08807167 -2.60343057 83.56661282 -18 88 C-19.20269531 88.36867188 -20.40539062 88.73734375 -21.64453125 89.1171875 C-27.25599776 90.48461968 -32.94487234 90.29865236 -38.6875 90.25 C-39.85216797 90.24178223 -41.01683594 90.23356445 -42.21679688 90.22509766 C-67.98153979 89.88913003 -92.38680212 80.45989841 -113 65 C-108.38 65 -103.76 65 -99 65 C-98.57130615 63.6903125 -98.1426123 62.380625 -97.70092773 61.03125 C-95.37804278 54.06828995 -92.70173508 47.25019296 -90.01196289 40.42236328 C-89.37435474 38.79563454 -88.743253 37.16634181 -88.1184082 35.53466797 C-87.20961947 33.16286438 -86.28104288 30.79971347 -85.34765625 28.4375 C-85.07147964 27.7053125 -84.79530304 26.973125 -84.51075745 26.21875 C-82.52054986 21.27387328 -82.52054986 21.27387328 -80 19.94775391 C-76.60216386 20.03651574 -73.85766322 21.78604307 -70.9375 23.375 C-59.34199794 29.50182875 -45.58602702 30.07470714 -32.875 26.375 C-19.03965739 21.28531438 -10.29994513 14.22805915 -1.8203125 2.4140625 C-1.21960938 1.61742187 -0.61890625 0.82078125 0 0 Z " fill="#E4C636" transform="translate(264,303)"/>
<path d="M0 0 C8.353125 -0.061875 16.70625 -0.12375 25.3125 -0.1875 C29.23443237 -0.22846802 29.23443237 -0.22846802 33.2355957 -0.27026367 C35.34065287 -0.27903705 37.44571519 -0.28667896 39.55078125 -0.29296875 C40.61727905 -0.30831665 41.68377686 -0.32366455 42.78259277 -0.33947754 C49.96321473 -0.34194652 56.1780291 0.76150858 63 3 C63 3.66 63 4.32 63 5 C63.680625 5.165 64.36125 5.33 65.0625 5.5 C70.44555961 8.2487964 74.47004156 13.17957144 76.9375 18.6875 C79.98833628 28.43110836 78.32212281 38.92887805 74 48 C71.16532538 52.27099413 68.36664333 54.15472105 63.75 56.3125 C62.67234375 56.82425781 61.5946875 57.33601563 60.484375 57.86328125 C59.66453125 58.23839844 58.8446875 58.61351562 58 59 C59.39328702 63.80317368 61.50605239 67.83926688 64.125 72.0625 C64.5173584 72.70936768 64.9097168 73.35623535 65.31396484 74.02270508 C67.30012949 77.28716944 69.327061 80.52057616 71.40625 83.7265625 C71.77991699 84.31042725 72.15358398 84.89429199 72.53857422 85.49584961 C73.56989041 87.10169004 74.61656235 88.69763806 75.6640625 90.29296875 C77 93 77 93 76.8984375 95.05078125 C76.60195312 95.69402344 76.30546875 96.33726562 76 97 C75.68417969 97.90105469 75.36835938 98.80210937 75.04296875 99.73046875 C73 102 73 102 70.97509766 102.39697266 C68.40364936 102.49382277 65.88277047 102.43471476 63.3125 102.3125 C61.97348633 102.27866211 61.97348633 102.27866211 60.60742188 102.24414062 C58.40325728 102.18520574 56.20247328 102.10300818 54 102 C53.74943848 101.49364014 53.49887695 100.98728027 53.24072266 100.46557617 C51.58922378 97.13299376 49.93664094 93.80157356 48.25341797 90.48486328 C45.90981884 85.86666603 43.63951264 81.24251684 41.53125 76.51171875 C37.79757415 67.47116517 37.79757415 67.47116517 30.703125 61.37109375 C27.663416 60.86090785 25.05940581 60.68985405 22 61 C22.24447876 62.23000732 22.24447876 62.23000732 22.49389648 63.48486328 C23.06134314 67.42605818 23.12555097 71.27188398 23.09765625 75.2421875 C23.0962413 76.01055939 23.09482635 76.77893127 23.09336853 77.57058716 C23.08780683 80.00543239 23.0752616 82.44018294 23.0625 84.875 C23.05748004 86.53385283 23.05291801 88.19270712 23.04882812 89.8515625 C23.03870426 93.90110678 23.0191217 97.95044841 23 102 C15.41 102 7.82 102 0 102 C0 68.34 0 34.68 0 0 Z " fill="#B29B2B" transform="translate(116,113)"/>
<path d="M0 0 C10.99051325 7.02250976 17.28582447 17.8002321 20.61328125 30.3046875 C22.79330807 45.49881382 21.48855937 62.73635884 12.75390625 75.76171875 C3.92813111 87.02490173 -7.5784542 95.1589516 -22 97 C-50.57961698 98.61358868 -50.57961698 98.61358868 -62 91 C-61.49210937 90.5875 -60.98421875 90.175 -60.4609375 89.75 C-55.60478645 85.67592571 -51.30962631 81.45336153 -48 76 C-48 75.34 -48 74.68 -48 74 C-48.845625 73.46375 -49.69125 72.9275 -50.5625 72.375 C-57.93869769 67.63191307 -63.06811552 60.55548842 -65 52 C-66.1129891 40.16184321 -64.6541241 30.82408951 -57.8046875 21.078125 C-52.59906425 15.08377096 -45.58261561 11.46694898 -37.703125 10.6640625 C-27.11290022 10.54426358 -19.50228101 12.73516136 -11 19 C-10.76539063 18.32582031 -10.53078125 17.65164063 -10.2890625 16.95703125 C-8.67837951 13.2622221 -6.58829804 10.04548812 -4.375 6.6875 C-3.95476562 6.04232422 -3.53453125 5.39714844 -3.1015625 4.73242188 C-2.07161759 3.15239276 -1.03634372 1.57583953 0 0 Z " fill="#E4C636" transform="translate(354,273)"/>
<path d="M0 0 C7.67599329 4.03303856 14.96888713 8.45139295 22.1875 13.25 C30.53625599 18.78179514 30.53625599 18.78179514 39.046875 24.05859375 C39.79557861 24.50879883 40.54428223 24.95900391 41.31567383 25.42285156 C42.69626723 26.24571128 44.08387782 27.05694708 45.47924805 27.85449219 C47.30859375 28.94921875 47.30859375 28.94921875 50 31 C50 35.82916651 48.25110533 38.45952217 45.8125 42.4375 C45.36688721 43.1790332 44.92127441 43.92056641 44.4621582 44.68457031 C42.98636066 47.13030788 41.49544355 49.56622962 40 52 C39.23768066 53.24257568 39.23768066 53.24257568 38.45996094 54.51025391 C35.21135992 59.79557945 31.93955852 65.06626363 28.66015625 70.33251953 C25.99589552 74.61335964 23.34147503 78.90027807 20.6875 83.1875 C20.16140137 84.03691162 19.63530273 84.88632324 19.09326172 85.76147461 C15.34995516 91.8086559 11.62055465 97.864295 7.89648438 103.92333984 C5.85263149 107.24723461 3.80540385 110.56903229 1.7578125 113.890625 C-0.5539949 117.64221158 -2.85228408 121.40120325 -5.1328125 125.171875 C-6.0259794 126.63545467 -6.91920333 128.09899953 -7.8125 129.5625 C-8.39777466 130.54440308 -8.39777466 130.54440308 -8.99487305 131.54614258 C-11.6606101 135.88687003 -11.6606101 135.88687003 -15 137 C-17.11559031 133.48934652 -19.22616708 129.97586451 -21.328125 126.45703125 C-23.1541443 123.40164649 -25.00107915 120.36006738 -26.859375 117.32421875 C-27.78154648 115.79965846 -28.70342831 114.27492293 -29.625 112.75 C-30.07472168 112.02369385 -30.52444336 111.2973877 -30.98779297 110.54907227 C-32.07059005 108.74433933 -33.04534261 106.87567047 -34 105 C-33 102 -33 102 -30.41796875 100.60546875 C-29.35191406 100.13753906 -28.28585938 99.66960937 -27.1875 99.1875 C-20.27414713 95.83730886 -17.79788861 92.57389389 -15.25 85.4375 C-12.92387641 76.90409633 -12.58042132 67.98743342 -16.7265625 60.00390625 C-19.78022068 55.19860979 -22.7250283 51.35327401 -28 49 C-27.47420881 44.35322385 -26.26482585 41.27518308 -23.7890625 37.32421875 C-23.12583984 36.25606934 -22.46261719 35.18791992 -21.77929688 34.08740234 C-21.06150341 32.95390805 -20.34339876 31.82061076 -19.625 30.6875 C-18.89836655 29.52600475 -18.17245915 28.36405498 -17.44726562 27.20166016 C-11.7348053 18.06860496 -5.91743994 9.0015294 0 0 Z " fill="#E4C737" transform="translate(207,69)"/>
<path d="M0 0 C0.95535645 0.00354492 1.91071289 0.00708984 2.89501953 0.01074219 C14.45469584 0.27880391 24.2156378 3.93642287 34.3125 9.5 C32.67297417 14.1393176 30.24378948 18.13855858 27.6875 22.3125 C27.26726562 23.00537109 26.84703125 23.69824219 26.4140625 24.41210938 C25.3835533 26.11010748 24.34848319 27.80533614 23.3125 29.5 C22.74660156 29.21253906 22.18070312 28.92507813 21.59765625 28.62890625 C19.33566283 27.51144283 17.05492539 26.4632113 14.75 25.4375 C13.98558594 25.09589844 13.22117187 24.75429688 12.43359375 24.40234375 C4.75495108 21.13573886 -4.47719457 21.26496177 -12.25 24.25 C-20.00103452 27.91688419 -23.95203319 32.84284076 -27.6875 40.5 C-30.93853546 49.99963583 -31.42221842 60.97963938 -27.08984375 70.21484375 C-23.35901646 76.29432554 -18.93217092 81.03556518 -12.6875 84.5 C-14.15542327 89.11837847 -16.79617917 92.34356403 -20 95.875 C-20.7105957 96.71224609 -20.7105957 96.71224609 -21.43554688 97.56640625 C-22.86328125 99.1484375 -22.86328125 99.1484375 -25.6875 101.5 C-30.89395656 101.63554328 -34.37214243 98.05269328 -38.1875 94.87890625 C-42.0743437 91.18033154 -44.93312029 87.08328784 -47.6875 82.5 C-48.09871094 81.819375 -48.50992187 81.13875 -48.93359375 80.4375 C-55.59929956 68.32691363 -55.42688946 51.30883549 -53.0703125 38.01953125 C-52.1652709 35.30841107 -51.08522369 32.99227914 -49.6875 30.5 C-49.11644531 29.42621094 -48.54539062 28.35242188 -47.95703125 27.24609375 C-39.90701941 13.12242029 -28.87694334 5.59306118 -13.36645508 1.10864258 C-8.90824943 0.09576491 -4.55783167 -0.03079069 0 0 Z " fill="#030200" transform="translate(319.6875,262.5)"/>
<path d="M0 0 C8.58 0 17.16 0 26 0 C29.35131869 8.04316487 32.59988789 16.06641339 35.64453125 24.22265625 C36.05918137 25.33056015 36.47383148 26.43846405 36.90104675 27.5799408 C37.76687319 29.89618215 38.63147019 32.21288343 39.49487305 34.5300293 C40.82143388 38.08645114 42.15570897 41.63991973 43.49023438 45.19335938 C44.33380455 47.45294914 45.17692017 49.71270866 46.01953125 51.97265625 C46.41944778 53.03509048 46.81936432 54.09752472 47.23139954 55.19215393 C47.59565536 56.17425339 47.95991119 57.15635284 48.33520508 58.16821289 C48.65765701 59.03136612 48.98010895 59.89451935 49.31233215 60.78382874 C50 63 50 63 50 66 C50.66 66 51.32 66 52 66 C52.09539062 65.21238281 52.19078125 64.42476563 52.2890625 63.61328125 C53.20659182 58.95001412 54.74267944 54.6426559 56.375 50.1875 C56.67921875 49.31673828 56.9834375 48.44597656 57.296875 47.54882812 C57.59851563 46.72189453 57.90015625 45.89496094 58.2109375 45.04296875 C58.48212402 44.29039795 58.75331055 43.53782715 59.03271484 42.76245117 C60 41 60 41 63 40 C63.63615234 40.87011719 63.63615234 40.87011719 64.28515625 41.7578125 C67.75958007 46.38528686 71.00652531 50.15529197 75.8125 53.41796875 C77 55 77 55 76.796875 57.53344727 C75.78716724 61.92586162 74.17525394 65.89763405 72.4375 70.046875 C72.0861499 70.89928772 71.7347998 71.75170044 71.37280273 72.62994385 C70.25439478 75.33909649 69.12724555 78.04451442 68 80.75 C67.24162841 82.58440438 66.48380991 84.41903752 65.7265625 86.25390625 C64.34311667 89.59999872 62.9583661 92.94552517 61.56640625 96.28808594 C61.28740479 96.9583783 61.00840332 97.62867065 60.72094727 98.3192749 C60.18702795 99.56398675 59.60570247 100.78859506 59 102 C56.62304877 102.13608499 54.25399518 102.23453667 51.875 102.3125 C51.20984375 102.35439453 50.5446875 102.39628906 49.859375 102.43945312 C45.54457659 102.54520799 42.77569741 101.80942005 39.54092407 98.93577576 C36.3791219 94.96378252 34.90801386 90.07470413 33.20600128 85.34187698 C32.20934471 82.57142249 31.1725919 79.81646028 30.13892746 77.0596447 C29.59268509 75.60121868 29.04855067 74.14200157 28.50642776 72.68203926 C25.79283501 65.38450702 22.91364389 58.1569687 20.00502014 50.9353714 C19.14193843 48.79232377 18.28145774 46.64824954 17.42175293 44.50384521 C15.69996367 40.21004067 13.97517581 35.91744478 12.25 31.625 C10.19472055 26.51057963 8.14069567 21.39566114 6.08946991 16.27961349 C5.27983601 14.26197684 4.46813169 12.24518165 3.65631104 10.22842407 C3.17450378 9.02720917 2.69269653 7.82599426 2.19628906 6.58837891 C1.77059631 5.52938385 1.34490356 4.47038879 0.90631104 3.37930298 C0 1 0 1 0 0 Z " fill="#020200" transform="translate(106,266)"/>
<path d="M0 0 C11.06589577 8.29942183 18.97583511 18.89218407 21 33 C22.24692339 50.20885993 20.50676829 66.81449336 8.96484375 80.39453125 C-0.94045037 90.92873294 -12.90900756 96.75249019 -27.37890625 97.23828125 C-51.99290679 97.67139547 -51.99290679 97.67139547 -62 91 C-61.49210937 90.5875 -60.98421875 90.175 -60.4609375 89.75 C-56.0823285 86.07656024 -52.51602257 82.37613264 -49.2265625 77.69921875 C-48 76 -48 76 -46 74 C-45.2575 74.33 -44.515 74.66 -43.75 75 C-34.44361524 77.4817026 -25.53114611 76.44248622 -17 72 C-11.05807572 68.0553612 -7.60678958 63.58149844 -5 57 C-4.64421875 56.25363281 -4.2884375 55.50726563 -3.921875 54.73828125 C-1.15802743 46.52871707 -2.15394521 36.11975252 -5.63671875 28.30859375 C-7.54788815 25.07220087 -9.81537874 22.05846976 -12 19 C-8.04 12.73 -4.08 6.46 0 0 Z " fill="#B19A2A" transform="translate(354,273)"/>
<path d="M0 0 C7.33922119 1.98923256 11.26200003 6.54279075 15.17578125 12.9140625 C19.25518094 22.00087697 17.39612667 32.3000785 14.265625 41.34375 C11.5547195 47.03330476 8.42016952 49.66231207 2.75 52.3125 C1.67234375 52.82425781 0.5946875 53.33601563 -0.515625 53.86328125 C-1.33546875 54.23839844 -2.1553125 54.61351562 -3 55 C-1.60671298 59.80317368 0.50605239 63.83926688 3.125 68.0625 C3.5173584 68.70936768 3.9097168 69.35623535 4.31396484 70.02270508 C6.30012949 73.28716944 8.327061 76.52057616 10.40625 79.7265625 C10.77991699 80.31042725 11.15358398 80.89429199 11.53857422 81.49584961 C12.56989041 83.10169004 13.61656235 84.69763806 14.6640625 86.29296875 C16 89 16 89 15.8984375 91.05078125 C15.60195312 91.69402344 15.30546875 92.33726562 15 93 C14.68417969 93.90105469 14.36835938 94.80210937 14.04296875 95.73046875 C12 98 12 98 9.97509766 98.39697266 C7.40364936 98.49382277 4.88277047 98.43471476 2.3125 98.3125 C0.97348633 98.27866211 0.97348633 98.27866211 -0.39257812 98.24414062 C-2.59674272 98.18520574 -4.79752672 98.10300818 -7 98 C-7.25056152 97.49364014 -7.50112305 96.98728027 -7.75927734 96.46557617 C-13.01019045 85.86968599 -18.33364211 75.32626182 -23.95068359 64.91870117 C-24.35109863 64.16951416 -24.75151367 63.42032715 -25.1640625 62.6484375 C-25.51936035 61.99020996 -25.8746582 61.33198242 -26.24072266 60.65380859 C-27 59 -27 59 -27 57 C-29.31 57 -31.62 57 -34 57 C-32.47730437 52.75877447 -30.32369719 49.04913327 -27.9375 45.25 C-27.57333984 44.66089844 -27.20917969 44.07179687 -26.83398438 43.46484375 C-24.15223689 39.15223689 -24.15223689 39.15223689 -23 38 C-21.42105096 37.70467805 -19.83657773 37.43862991 -18.25 37.1875 C-12.32985394 36.01499913 -12.32985394 36.01499913 -8 32 C-7.23970649 27.02130379 -7.17163916 23.24254125 -10 19 C-9.80409303 14.13639664 -7.06633241 10.5965295 -4.4375 6.6875 C-4.01275391 6.04232422 -3.58800781 5.39714844 -3.15039062 4.73242188 C-2.10733607 3.15026046 -1.05462128 1.57447499 0 0 Z " fill="#030200" transform="translate(177,117)"/>
<path d="M0 0 C30.36 0 60.72 0 92 0 C92 6.93 92 13.86 92 21 C61.64 21 31.28 21 0 21 C0 14.07 0 7.14 0 0 Z " fill="#B29B2B" transform="translate(273,113)"/>
<path d="M0 0 C0 7.26 0 14.52 0 22 C-30.6843187 22.12773306 -61.32570416 21.79452385 -92 21 C-92 14.4 -92 7.8 -92 1 C-82.85425396 0.8283946 -73.70843018 0.66148147 -64.5625 0.5 C-63.88999081 0.48812275 -63.21748161 0.4762455 -62.52459335 0.46400833 C-41.68143437 0.09761605 -20.84658301 -0.14245956 0 0 Z " fill="#AC9629" transform="translate(365,192)"/>
<path d="M0 0 C30.03 0 60.06 0 91 0 C91.495 10.395 91.495 10.395 92 21 C73.5442848 21.07034098 55.09816693 20.81151816 36.6451416 20.53643799 C32.50107416 20.47499637 28.35698134 20.41531655 24.21289062 20.35546875 C16.14190173 20.23865998 8.07094504 20.11980085 0 20 C0 13.4 0 6.8 0 0 Z " fill="#B0992A" transform="translate(273,153)"/>
<path d="M0 0 C5.71973216 2.11841932 8.79963449 7.10064625 11.3125 12.375 C14.61401375 21.35944725 14.33000467 31.58236039 11 40.5 C6.8059146 49.14662984 1.23744037 54.14450675 -7.80078125 57.30859375 C-8.88939453 57.65083984 -8.88939453 57.65083984 -10 58 C-11.485 58.495 -11.485 58.495 -13 59 C-19.24365499 59.38741294 -25.18314467 59.58526903 -31 57 C-29.55048845 54.00016743 -27.93352121 51.16045835 -26.19921875 48.31640625 C-25.64016846 47.39843262 -25.08111816 46.48045898 -24.50512695 45.53466797 C-23.90531006 44.55385254 -23.30549316 43.57303711 -22.6875 42.5625 C-22.07028076 41.55074707 -21.45306152 40.53899414 -20.81713867 39.49658203 C-15.96826591 31.55847325 -11.08363621 23.64269599 -6.17651367 15.74047852 C-5.19637196 14.16209891 -4.21800898 12.58261248 -3.24194336 11.00170898 C-2.21424335 9.34530788 -1.1680971 7.70036747 -0.1171875 6.05859375 C1.23778473 4.04502406 1.23778473 4.04502406 0.6875 1.6875 C0.460625 1.130625 0.23375 0.57375 0 0 Z " fill="#FDDD3C" transform="translate(339,291)"/>
<path d="M0 0 C7.92 0 15.84 0 24 0 C20.62556689 10.12329932 20.62556689 10.12329932 19.13061523 13.78198242 C18.79694443 14.60280807 18.46327362 15.42363373 18.11949158 16.26933289 C17.76939529 17.12275772 17.41929901 17.97618256 17.05859375 18.85546875 C16.69024918 19.76073807 16.3219046 20.66600739 15.94239807 21.59870911 C14.77677002 24.4627368 13.60746841 27.32524292 12.4375 30.1875 C11.26429831 33.06060272 10.09195812 35.93404542 8.92189026 38.8084259 C8.19701904 40.58889623 7.47033532 42.36863006 6.74156189 44.14750671 C5.01226404 48.39264985 3.3835684 52.62586691 2 57 C-3.54069415 52.498186 -8.63142314 47.67347644 -13 42 C-13 41.34 -13 40.68 -13 40 C-13.66 39.67 -14.32 39.34 -15 39 C-10.05 26.13 -5.1 13.26 0 0 Z " fill="#B19A2A" transform="translate(182,266)"/>
<path d="M0 0 C1.47404918 0.10023534 2.94800756 0.2018144 4.421875 0.3046875 C5.92686984 0.36496507 7.4320973 0.41970343 8.9375 0.46875 C12.60942437 0.59006909 16.24880456 0.82405284 19.921875 1.0546875 C19.921875 7.6546875 19.921875 14.2546875 19.921875 21.0546875 C5.401875 21.0546875 -9.118125 21.0546875 -24.078125 21.0546875 C-22.758125 18.4146875 -21.438125 15.7746875 -20.078125 13.0546875 C-19.56314453 11.93932617 -19.04816406 10.82396484 -18.51757812 9.67480469 C-13.8603872 1.04336779 -9.25726501 -0.38863194 0 0 Z " fill="#000000" transform="translate(344.078125,191.9453125)"/>
<path d="M0 0 C4.7334375 -0.061875 4.7334375 -0.061875 9.5625 -0.125 C10.5429126 -0.14320801 11.5233252 -0.16141602 12.53344727 -0.18017578 C17.7643406 -0.2130578 22.05418674 0.2767674 27 2 C27 2.66 27 3.32 27 4 C27.99 4.33 28.98 4.66 30 5 C31.86794584 8.73589168 31.68891597 12.9430504 31 17 C28.6938185 20.24033097 25.75121311 21.74959563 22 23 C20.29983156 23.08178114 18.59663703 23.10749501 16.89453125 23.09765625 C15.56578979 23.09390991 15.56578979 23.09390991 14.21020508 23.09008789 C13.0889624 23.08098389 11.96771973 23.07187988 10.8125 23.0625 C7.244375 23.041875 3.67625 23.02125 0 23 C0 15.41 0 7.82 0 0 Z " fill="#FDDD3C" transform="translate(139,132)"/>
<path d="M0 0 C0.66 0 1.32 0 2 0 C2 11.22 2 22.44 2 34 C-5.26 34 -12.52 34 -20 34 C-15.02774918 25.181291 -9.90561541 16.4866739 -4.59448242 7.86767578 C-4.14177979 7.13274902 -3.68907715 6.39782227 -3.22265625 5.640625 C-2.81797119 4.98610352 -2.41328613 4.33158203 -1.99633789 3.65722656 C-0.95210256 1.96885647 -0.95210256 1.96885647 0 0 Z " fill="#080702" transform="translate(137,181)"/>
<path d="M0 0 C3.17363907 1.05787969 5.99386121 2.46829946 8.8125 4.25 C9.41707031 4.62640625 10.02164062 5.0028125 10.64453125 5.390625 C12 7 12 7 12 13 C5.73 13 -0.54 13 -7 13 C-5.58001139 9.45002848 -4.3878411 6.81270066 -2.375 3.6875 C-1.92898438 2.99011719 -1.48296875 2.29273438 -1.0234375 1.57421875 C-0.51683594 0.79498047 -0.51683594 0.79498047 0 0 Z " fill="#040301" transform="translate(352,160)"/>
<path d="M0 0 C1.9375 0.375 1.9375 0.375 4 1 C5.87475362 4.74950725 5.65760376 8.92668741 5 13 C3.29968913 15.89868495 2.15342178 16.36697801 -1 18 C-3.89839978 18.09349677 -6.13068791 17.64312167 -9 17 C-7.51481201 12.95698825 -5.57122002 9.38853744 -3.375 5.6875 C-2.74335938 4.61886719 -2.11171875 3.55023438 -1.4609375 2.44921875 C-0.97882813 1.64097656 -0.49671875 0.83273438 0 0 Z " fill="#E6C837" transform="translate(165,136)"/>
<path d="M0 0 C2.15377564 2.62198774 3.40072174 4.64404172 4 8 C1.36 8 -1.28 8 -4 8 C-2.68 5.36 -1.36 2.72 0 0 Z " fill="#B59E2B" transform="translate(193,207)"/>
</svg>
